<mxfile host="app.diagrams.net" modified="2022-10-03T12:46:43.793Z" agent="5.0 (Macintosh; Intel Mac OS X 10_15_7) AppleWebKit/537.36 (KHTML, like Gecko) Chrome/104.0.0.0 Safari/537.36" etag="58j9nU5MmsDUns3w5Nxu" version="20.4.0" type="github">
  <diagram id="xvC7Ls9NfVxqIGzKfmR-" name="페이지-1">
    <mxGraphModel dx="946" dy="589" grid="1" gridSize="10" guides="1" tooltips="1" connect="1" arrows="1" fold="1" page="1" pageScale="1" pageWidth="827" pageHeight="1169" math="0" shadow="0">
      <root>
        <mxCell id="0" />
        <mxCell id="1" parent="0" />
        <mxCell id="yCHKD8jDzaWkfiSUe-cT-1" value="User N" style="shape=umlActor;verticalLabelPosition=bottom;verticalAlign=top;html=1;outlineConnect=0;" vertex="1" parent="1">
          <mxGeometry x="90" y="298" width="30" height="60" as="geometry" />
        </mxCell>
        <mxCell id="yCHKD8jDzaWkfiSUe-cT-8" value="User 1" style="shape=umlActor;verticalLabelPosition=bottom;verticalAlign=top;html=1;outlineConnect=0;" vertex="1" parent="1">
          <mxGeometry x="90" y="167" width="30" height="60" as="geometry" />
        </mxCell>
        <mxCell id="yCHKD8jDzaWkfiSUe-cT-11" value="WaitingQueue" style="shape=process;whiteSpace=wrap;html=1;backgroundOutline=1;" vertex="1" parent="1">
          <mxGeometry x="268" y="242" width="170" height="60" as="geometry" />
        </mxCell>
        <mxCell id="yCHKD8jDzaWkfiSUe-cT-12" value="" style="endArrow=none;dashed=1;html=1;dashPattern=1 3;strokeWidth=2;rounded=0;" edge="1" parent="1">
          <mxGeometry width="50" height="50" relative="1" as="geometry">
            <mxPoint x="104.5" y="288" as="sourcePoint" />
            <mxPoint x="104.5" y="248" as="targetPoint" />
          </mxGeometry>
        </mxCell>
        <mxCell id="yCHKD8jDzaWkfiSUe-cT-15" value="작업 요청 (Polling)" style="text;strokeColor=none;fillColor=none;align=left;verticalAlign=middle;spacingLeft=4;spacingRight=4;overflow=hidden;points=[[0,0.5],[1,0.5]];portConstraint=eastwest;rotatable=0;" vertex="1" parent="1">
          <mxGeometry x="170" y="190" width="127" height="30" as="geometry" />
        </mxCell>
        <mxCell id="yCHKD8jDzaWkfiSUe-cT-16" value="" style="endArrow=classic;html=1;rounded=0;exitX=0;exitY=0.5;exitDx=0;exitDy=0;" edge="1" parent="1" source="yCHKD8jDzaWkfiSUe-cT-11">
          <mxGeometry width="50" height="50" relative="1" as="geometry">
            <mxPoint x="120" y="270.0019512195122" as="sourcePoint" />
            <mxPoint x="120" y="200" as="targetPoint" />
          </mxGeometry>
        </mxCell>
        <mxCell id="yCHKD8jDzaWkfiSUe-cT-17" value="남은 대기열 반환" style="text;strokeColor=none;fillColor=none;align=left;verticalAlign=middle;spacingLeft=4;spacingRight=4;overflow=hidden;points=[[0,0.5],[1,0.5]];portConstraint=eastwest;rotatable=0;" vertex="1" parent="1">
          <mxGeometry x="143" y="243" width="97" height="30" as="geometry" />
        </mxCell>
        <mxCell id="yCHKD8jDzaWkfiSUe-cT-19" value="" style="endArrow=classic;html=1;rounded=0;entryX=-0.012;entryY=0.633;entryDx=0;entryDy=0;entryPerimeter=0;" edge="1" parent="1" target="yCHKD8jDzaWkfiSUe-cT-11">
          <mxGeometry width="50" height="50" relative="1" as="geometry">
            <mxPoint x="130" y="330" as="sourcePoint" />
            <mxPoint x="300" y="310" as="targetPoint" />
          </mxGeometry>
        </mxCell>
        <mxCell id="yCHKD8jDzaWkfiSUe-cT-21" value="" style="endArrow=classic;html=1;rounded=0;entryX=0;entryY=0.25;entryDx=0;entryDy=0;" edge="1" parent="1" target="yCHKD8jDzaWkfiSUe-cT-11">
          <mxGeometry width="50" height="50" relative="1" as="geometry">
            <mxPoint x="130" y="190" as="sourcePoint" />
            <mxPoint x="130" y="210" as="targetPoint" />
          </mxGeometry>
        </mxCell>
        <mxCell id="yCHKD8jDzaWkfiSUe-cT-22" value="" style="endArrow=none;html=1;rounded=0;exitX=1;exitY=0.5;exitDx=0;exitDy=0;" edge="1" parent="1">
          <mxGeometry width="50" height="50" relative="1" as="geometry">
            <mxPoint x="438" y="271" as="sourcePoint" />
            <mxPoint x="480" y="271" as="targetPoint" />
          </mxGeometry>
        </mxCell>
        <mxCell id="yCHKD8jDzaWkfiSUe-cT-23" value="" style="endArrow=none;html=1;rounded=0;" edge="1" parent="1">
          <mxGeometry width="50" height="50" relative="1" as="geometry">
            <mxPoint x="480" y="270" as="sourcePoint" />
            <mxPoint x="480" y="360" as="targetPoint" />
          </mxGeometry>
        </mxCell>
        <mxCell id="yCHKD8jDzaWkfiSUe-cT-24" value="" style="endArrow=classic;html=1;rounded=0;" edge="1" parent="1">
          <mxGeometry width="50" height="50" relative="1" as="geometry">
            <mxPoint x="480" y="360" as="sourcePoint" />
            <mxPoint x="130" y="360" as="targetPoint" />
          </mxGeometry>
        </mxCell>
        <mxCell id="yCHKD8jDzaWkfiSUe-cT-25" value="작업 완료 (User N)" style="text;strokeColor=none;fillColor=none;align=left;verticalAlign=middle;spacingLeft=4;spacingRight=4;overflow=hidden;points=[[0,0.5],[1,0.5]];portConstraint=eastwest;rotatable=0;" vertex="1" parent="1">
          <mxGeometry x="280" y="333" width="140" height="30" as="geometry" />
        </mxCell>
        <mxCell id="yCHKD8jDzaWkfiSUe-cT-27" value="" style="endArrow=classic;html=1;rounded=0;exitX=0;exitY=0.75;exitDx=0;exitDy=0;" edge="1" parent="1" source="yCHKD8jDzaWkfiSUe-cT-11">
          <mxGeometry width="50" height="50" relative="1" as="geometry">
            <mxPoint x="250" y="340" as="sourcePoint" />
            <mxPoint x="130" y="340" as="targetPoint" />
          </mxGeometry>
        </mxCell>
      </root>
    </mxGraphModel>
  </diagram>
</mxfile>
